<svg xmlns="http://www.w3.org/2000/svg" xmlns:xlink="http://www.w3.org/1999/xlink" width="500" zoomAndPan="magnify" viewBox="0 0 375 374.999991" height="500" preserveAspectRatio="xMidYMid meet" version="1.2"><defs><clipPath id="62cd0a3ff1"><path d="M 157 24 L 348 24 L 348 374.921875 L 157 374.921875 Z M 157 24 "/></clipPath><clipPath id="308f5bb203"><path d="M 42 172 L 228 172 L 228 374.921875 L 42 374.921875 Z M 42 172 "/></clipPath></defs><g id="482bebb147"><g clip-rule="nonzero" clip-path="url(#62cd0a3ff1)"><path style=" stroke:none;fill-rule:nonzero;fill:#ffffff;fill-opacity:1;" d="M 345.398438 24.183594 L 347.164062 24.183594 C 346.824219 27.390625 346.230469 30.546875 345.382812 33.65625 L 345.015625 35.035156 C 344.613281 36.539062 344.210938 38.042969 343.804688 39.546875 C 343.519531 40.621094 343.230469 41.691406 342.945312 42.765625 C 342.175781 45.640625 341.40625 48.519531 340.632812 51.398438 C 339.984375 53.804688 339.339844 56.214844 338.695312 58.625 C 334.640625 73.773438 330.542969 88.90625 326.402344 104.03125 C 321.867188 120.601562 317.441406 137.199219 313.023438 153.800781 C 310.765625 162.289062 308.5 170.777344 306.230469 179.261719 L 305.71875 181.167969 L 303.144531 190.796875 C 298.21875 209.210938 293.296875 227.625 288.414062 246.050781 C 285.316406 257.726562 282.199219 269.394531 279.074219 281.0625 C 275.148438 295.710938 271.238281 310.371094 267.34375 325.035156 C 265.128906 333.355469 262.929688 341.683594 260.738281 350.011719 L 259.589844 354.394531 C 258.871094 357.117188 258.15625 359.84375 257.445312 362.570312 L 256.488281 366.207031 L 256.058594 367.863281 L 255.65625 369.390625 L 255.3125 370.703125 C 254.878906 372.140625 254.308594 373.53125 253.75 374.921875 L 190.300781 374.921875 C 191.710938 368.925781 193.128906 362.976562 194.753906 357.039062 L 195.648438 353.746094 L 196.589844 350.285156 C 197.71875 346.140625 198.839844 341.992188 199.960938 337.847656 L 200.308594 336.566406 C 202.523438 328.359375 204.707031 320.140625 206.859375 311.914062 L 209.015625 303.699219 L 209.582031 301.535156 C 212.058594 292.101562 214.5625 282.671875 217.066406 273.246094 C 221 258.441406 224.917969 243.632812 228.816406 228.820312 L 229.328125 226.882812 C 231.367188 219.121094 233.40625 211.359375 235.4375 203.597656 L 240.308594 185.019531 C 243.585938 172.527344 246.867188 160.039062 250.265625 147.582031 L 250.621094 146.273438 C 250.921875 145.167969 251.222656 144.066406 251.523438 142.964844 C 251.96875 141.171875 252.300781 139.398438 252.574219 137.574219 C 248.511719 139.089844 245.035156 141.421875 241.414062 143.777344 L 239.425781 145.058594 C 235.613281 147.523438 231.816406 150.011719 228.050781 152.546875 C 224.144531 155.167969 220.1875 157.710938 216.234375 160.261719 C 214.183594 161.582031 212.136719 162.90625 210.089844 164.230469 L 208.855469 165.03125 C 205.605469 167.132812 202.359375 169.242188 199.113281 171.355469 C 194.234375 174.523438 189.355469 177.6875 184.46875 180.847656 C 181.988281 182.453125 179.503906 184.058594 177.019531 185.664062 C 174.859375 187.0625 172.699219 188.460938 170.539062 189.859375 L 169.183594 190.734375 L 165.453125 193.144531 L 164.332031 193.863281 C 163.636719 194.320312 162.957031 194.796875 162.289062 195.289062 C 161.371094 195.957031 161.371094 195.957031 159.75 196.910156 C 158.472656 196.675781 158.472656 196.675781 157.398438 196.324219 C 158.183594 191.414062 159.375 186.6875 160.730469 181.90625 L 161.367188 179.628906 C 161.925781 177.636719 162.484375 175.648438 163.046875 173.660156 C 163.601562 171.6875 164.15625 169.710938 164.707031 167.738281 C 165.46875 165.03125 166.226562 162.324219 166.988281 159.617188 C 167.921875 156.3125 168.84375 153.007812 169.761719 149.699219 L 170.328125 147.65625 C 170.679688 146.398438 171.027344 145.136719 171.375 143.878906 C 171.605469 143.039062 171.605469 143.039062 171.84375 142.1875 L 172.246094 140.722656 C 172.707031 139.230469 173.195312 137.816406 173.851562 136.398438 C 175.390625 135.140625 175.390625 135.140625 177.339844 133.894531 L 178.398438 133.210938 C 179.535156 132.480469 180.675781 131.757812 181.816406 131.035156 C 182.605469 130.53125 183.394531 130.023438 184.183594 129.515625 C 186.085938 128.292969 187.996094 127.074219 189.90625 125.859375 C 191.941406 124.5625 193.964844 123.246094 195.992188 121.929688 L 198.300781 120.4375 C 204.269531 116.582031 210.207031 112.679688 216.148438 108.785156 L 218.199219 107.445312 C 226.769531 101.832031 235.332031 96.214844 243.894531 90.59375 C 249.789062 86.726562 255.6875 82.863281 261.585938 79.007812 C 265.992188 76.128906 270.394531 73.246094 274.796875 70.359375 C 280.792969 66.429688 286.792969 62.507812 292.796875 58.59375 C 297.054688 55.820312 301.308594 53.039062 305.558594 50.253906 C 309.949219 47.382812 314.34375 44.519531 318.742188 41.664062 C 324.125 38.164062 329.496094 34.652344 334.863281 31.125 L 336.144531 30.285156 L 339.765625 27.90625 L 340.871094 27.179688 C 342.382812 26.1875 343.894531 25.1875 345.398438 24.183594 "/></g><g clip-rule="nonzero" clip-path="url(#308f5bb203)"><path style=" stroke:none;fill-rule:nonzero;fill:#ffffff;fill-opacity:1;" d="M 227.3125 172.824219 C 226.492188 177.242188 225.429688 181.566406 224.273438 185.90625 L 223.707031 188.03125 C 223.195312 189.960938 222.683594 191.890625 222.167969 193.816406 L 221.179688 197.523438 C 217.464844 211.484375 213.667969 225.425781 209.855469 239.363281 C 203.855469 261.285156 197.996094 283.246094 192.160156 305.214844 C 190.425781 311.742188 188.683594 318.265625 186.9375 324.789062 L 184.5 333.90625 L 183.925781 336.046875 C 182.078125 342.960938 180.246094 349.878906 178.476562 356.8125 L 178.050781 358.484375 C 177.410156 360.996094 176.777344 363.507812 176.148438 366.019531 L 175.816406 367.335938 C 175.53125 368.476562 175.246094 369.617188 174.960938 370.761719 C 174.4375 372.574219 174.4375 372.574219 173.261719 374.921875 L 42.835938 374.921875 C 42.835938 369.636719 42.835938 369.636719 43.496094 367.335938 L 43.941406 365.738281 L 44.441406 364.023438 L 44.964844 362.152344 C 45.347656 360.796875 45.730469 359.445312 46.117188 358.089844 C 47.191406 354.316406 48.246094 350.539062 49.300781 346.757812 L 49.644531 345.523438 C 53.199219 332.789062 56.542969 320 59.90625 307.214844 L 60.730469 304.082031 L 61.136719 302.546875 C 62.144531 298.722656 63.160156 294.902344 64.183594 291.085938 C 64.871094 288.503906 65.535156 285.921875 66.179688 283.332031 L 67.050781 279.996094 L 67.382812 278.570312 C 67.875 276.734375 68.335938 275.433594 69.628906 274.011719 C 71.945312 271.984375 74.5 270.351562 77.132812 268.769531 C 77.96875 268.257812 78.800781 267.742188 79.632812 267.230469 L 80.921875 266.441406 C 82.980469 265.164062 85.015625 263.847656 87.046875 262.527344 L 88.289062 261.71875 C 89.589844 260.875 90.890625 260.03125 92.1875 259.183594 L 95.015625 257.347656 C 98.9375 254.800781 102.859375 252.25 106.777344 249.695312 C 112.242188 246.136719 117.71875 242.605469 123.214844 239.101562 C 127.457031 236.390625 131.683594 233.667969 135.859375 230.863281 C 141.429688 227.121094 147.074219 223.480469 152.699219 219.824219 L 154.265625 218.804688 C 157.175781 216.910156 160.089844 215.019531 163 213.125 L 167.441406 210.238281 C 170.789062 208.066406 174.132812 205.890625 177.476562 203.71875 C 182.40625 200.515625 187.355469 197.339844 192.320312 194.191406 C 197.195312 191.101562 202.035156 187.960938 206.859375 184.792969 C 216.164062 178.699219 216.164062 178.699219 220.8125 175.722656 L 222.203125 174.820312 L 223.472656 174.011719 L 224.566406 173.3125 C 225.550781 172.824219 225.550781 172.824219 227.3125 172.824219 "/></g></g></svg>